<svg width="183" height="30" viewBox="0 0 183 30" fill="none" xmlns="http://www.w3.org/2000/svg">
<path d="M17.964 24.536H8.532L7.02 29H0.576L9.72 3.728H16.848L25.992 29H19.476L17.964 24.536ZM16.38 19.784L13.248 10.532L10.152 19.784H16.38ZM43.535 8.696C45.887 8.696 47.759 9.464 49.151 11C50.567 12.512 51.275 14.6 51.275 17.264V29H45.155V18.092C45.155 16.748 44.807 15.704 44.111 14.96C43.415 14.216 42.479 13.844 41.303 13.844C40.127 13.844 39.191 14.216 38.495 14.96C37.799 15.704 37.451 16.748 37.451 18.092V29H31.295V8.912H37.451V11.576C38.075 10.688 38.915 9.992 39.971 9.488C41.027 8.96 42.215 8.696 43.535 8.696ZM67.2168 29.288C65.2488 29.288 63.4728 28.868 61.8888 28.028C60.3288 27.188 59.0928 25.988 58.1808 24.428C57.2928 22.868 56.8488 21.044 56.8488 18.956C56.8488 16.892 57.3048 15.08 58.2168 13.52C59.1288 11.936 60.3768 10.724 61.9608 9.884C63.5448 9.044 65.3208 8.624 67.2888 8.624C69.2568 8.624 71.0328 9.044 72.6168 9.884C74.2008 10.724 75.4488 11.936 76.3608 13.52C77.2728 15.08 77.7288 16.892 77.7288 18.956C77.7288 21.02 77.2608 22.844 76.3248 24.428C75.4128 25.988 74.1528 27.188 72.5448 28.028C70.9608 28.868 69.1848 29.288 67.2168 29.288ZM67.2168 23.96C68.3928 23.96 69.3888 23.528 70.2048 22.664C71.0448 21.8 71.4648 20.564 71.4648 18.956C71.4648 17.348 71.0568 16.112 70.2408 15.248C69.4488 14.384 68.4648 13.952 67.2888 13.952C66.0888 13.952 65.0928 14.384 64.3008 15.248C63.5088 16.088 63.1128 17.324 63.1128 18.956C63.1128 20.564 63.4968 21.8 64.2648 22.664C65.0568 23.528 66.0408 23.96 67.2168 23.96ZM95.7547 8.696C98.1067 8.696 99.9787 9.464 101.371 11C102.787 12.512 103.495 14.6 103.495 17.264V29H97.3747V18.092C97.3747 16.748 97.0267 15.704 96.3307 14.96C95.6347 14.216 94.6987 13.844 93.5227 13.844C92.3467 13.844 91.4107 14.216 90.7147 14.96C90.0187 15.704 89.6707 16.748 89.6707 18.092V29H83.5147V8.912H89.6707V11.576C90.2947 10.688 91.1347 9.992 92.1907 9.488C93.2467 8.96 94.4347 8.696 95.7547 8.696ZM113.388 6.824C112.308 6.824 111.42 6.512 110.724 5.888C110.052 5.24 109.716 4.448 109.716 3.512C109.716 2.552 110.052 1.76 110.724 1.136C111.42 0.487998 112.308 0.163998 113.388 0.163998C114.444 0.163998 115.308 0.487998 115.98 1.136C116.676 1.76 117.024 2.552 117.024 3.512C117.024 4.448 116.676 5.24 115.98 5.888C115.308 6.512 114.444 6.824 113.388 6.824ZM116.448 8.912V29H110.292V8.912H116.448ZM149.062 8.696C151.558 8.696 153.538 9.452 155.002 10.964C156.49 12.476 157.234 14.576 157.234 17.264V29H151.114V18.092C151.114 16.796 150.766 15.8 150.07 15.104C149.398 14.384 148.462 14.024 147.262 14.024C146.062 14.024 145.114 14.384 144.418 15.104C143.746 15.8 143.41 16.796 143.41 18.092V29H137.29V18.092C137.29 16.796 136.942 15.8 136.246 15.104C135.574 14.384 134.638 14.024 133.438 14.024C132.238 14.024 131.29 14.384 130.594 15.104C129.922 15.8 129.586 16.796 129.586 18.092V29H123.43V8.912H129.586V11.432C130.21 10.592 131.026 9.932 132.034 9.452C133.042 8.948 134.182 8.696 135.454 8.696C136.966 8.696 138.31 9.02 139.486 9.668C140.686 10.316 141.622 11.24 142.294 12.44C142.99 11.336 143.938 10.436 145.138 9.74C146.338 9.044 147.646 8.696 149.062 8.696ZM182.995 18.632C182.995 19.208 182.959 19.808 182.887 20.432H168.955C169.051 21.68 169.447 22.64 170.143 23.312C170.863 23.96 171.739 24.284 172.771 24.284C174.307 24.284 175.375 23.636 175.975 22.34H182.527C182.191 23.66 181.579 24.848 180.691 25.904C179.827 26.96 178.735 27.788 177.415 28.388C176.095 28.988 174.619 29.288 172.987 29.288C171.019 29.288 169.267 28.868 167.731 28.028C166.195 27.188 164.995 25.988 164.131 24.428C163.267 22.868 162.835 21.044 162.835 18.956C162.835 16.868 163.255 15.044 164.095 13.484C164.959 11.924 166.159 10.724 167.695 9.884C169.231 9.044 170.995 8.624 172.987 8.624C174.931 8.624 176.659 9.032 178.171 9.848C179.683 10.664 180.859 11.828 181.699 13.34C182.563 14.852 182.995 16.616 182.995 18.632ZM176.695 17.012C176.695 15.956 176.335 15.116 175.615 14.492C174.895 13.868 173.995 13.556 172.915 13.556C171.883 13.556 171.007 13.856 170.287 14.456C169.591 15.056 169.159 15.908 168.991 17.012H176.695Z" fill="white"/>
</svg>
